<svg xmlns="http://www.w3.org/2000/svg" version="1.1" xmlns:xlink="http://www.w3.org/1999/xlink" xmlns:svgjs="http://svgjs.dev/svgjs" width="1906" height="1377" preserveAspectRatio="none" viewBox="0 0 1906 1377"><g mask="url(&quot;#SvgjsMask1001&quot;)" fill="none"><path d="M991.72 861.5L991.72 866.43L1038.13 866.43L1038.13 861.5zM1029.39 863.97 a8.74 8.74 0 1 0 17.48 0 a8.74 8.74 0 1 0 -17.48 0zM985.49 897.74L983.6 902.29L1024.03 919.04L1025.92 914.48zM1016.24 916.76 a8.74 8.74 0 1 0 17.48 0 a8.74 8.74 0 1 0 -17.48 0zM965.87 928.83L962.38 932.32L977.63 947.57L981.12 944.08zM970.63 945.82 a8.74 8.74 0 1 0 17.48 0 a8.74 8.74 0 1 0 -17.48 0zM935.85 950.05L931.29 951.94L938.86 970.22L943.42 968.34zM932.4 969.28 a8.74 8.74 0 1 0 17.48 0 a8.74 8.74 0 1 0 -17.48 0zM899.98 958.17L895.05 958.17L895.05 988.5L899.98 988.5zM888.78 988.5 a8.74 8.74 0 1 0 17.48 0 a8.74 8.74 0 1 0 -17.48 0zM863.75 951.94L859.19 950.05L845.67 982.69L850.23 984.58zM839.21 983.64 a8.74 8.74 0 1 0 17.48 0 a8.74 8.74 0 1 0 -17.48 0zM832.65 932.32L829.16 928.83L798.81 959.18L802.3 962.67zM791.82 960.93 a8.74 8.74 0 1 0 17.48 0 a8.74 8.74 0 1 0 -17.48 0zM811.43 902.29L809.54 897.74L790.76 905.52L792.65 910.07zM782.97 907.8 a8.74 8.74 0 1 0 17.48 0 a8.74 8.74 0 1 0 -17.48 0zM803.32 866.43L803.32 861.5L790.19 861.5L790.19 866.43zM781.45 863.97 a8.74 8.74 0 1 0 17.48 0 a8.74 8.74 0 1 0 -17.48 0zM809.54 830.2L811.43 825.64L768.93 808.04L767.05 812.59zM759.25 810.31 a8.74 8.74 0 1 0 17.48 0 a8.74 8.74 0 1 0 -17.48 0zM829.16 799.1L832.65 795.61L800.21 763.17L796.72 766.66zM789.73 764.91 a8.74 8.74 0 1 0 17.48 0 a8.74 8.74 0 1 0 -17.48 0zM859.19 777.88L863.75 775.99L850.1 743.06L845.55 744.94zM839.09 744 a8.74 8.74 0 1 0 17.48 0 a8.74 8.74 0 1 0 -17.48 0zM895.05 769.77L899.98 769.77L899.98 745.6L895.05 745.6zM888.78 745.6 a8.74 8.74 0 1 0 17.48 0 a8.74 8.74 0 1 0 -17.48 0zM931.29 775.99L935.85 777.88L941.15 765.07L936.6 763.18zM930.13 764.12 a8.74 8.74 0 1 0 17.48 0 a8.74 8.74 0 1 0 -17.48 0zM962.38 795.61L965.87 799.1L982.38 782.59L978.89 779.1zM971.9 780.85 a8.74 8.74 0 1 0 17.48 0 a8.74 8.74 0 1 0 -17.48 0zM983.6 825.64L985.49 830.2L1020.98 815.5L1019.09 810.94zM1011.29 813.22 a8.74 8.74 0 1 0 17.48 0 a8.74 8.74 0 1 0 -17.48 0zM803.29 863.97 a94.23 94.23 0 1 0 188.46 0 a94.23 94.23 0 1 0 -188.46 0z" fill="rgba(0, 185, 96, 1)"></path><path d="M807.14 890.65 A93.23263999999999 93.23263999999999 0 0 1 919.4 772.31M919.4 772.31 A188.46527999999998 188.46527999999998 0 0 0 807.14 890.65" fill="#00944d" fill-rule="nonzero"></path><path d="M927.48 886.07 a18.85 18.85 0 1 0 37.7 0 a18.85 18.85 0 1 0 -37.7 0zM861.94 832.05 a18.85 18.85 0 1 0 37.7 0 a18.85 18.85 0 1 0 -37.7 0zM875.43 778.49 a6.6 6.6 0 1 0 13.2 0 a6.6 6.6 0 1 0 -13.2 0zM840.49 922.23 a18.85 18.85 0 1 0 37.7 0 a18.85 18.85 0 1 0 -37.7 0zM918.22 823.24 a17.9 17.9 0 1 0 35.8 0 a17.9 17.9 0 1 0 -35.8 0zM824.82 807.91 a8.48 8.48 0 1 0 16.96 0 a8.48 8.48 0 1 0 -16.96 0zM836.99 845.78 a3.77 3.77 0 1 0 7.54 0 a3.77 3.77 0 1 0 -7.54 0zM873.32 879.67 a9.42 9.42 0 1 0 18.84 0 a9.42 9.42 0 1 0 -18.84 0zM981.75 843.63 a3.77 3.77 0 1 0 7.54 0 a3.77 3.77 0 1 0 -7.54 0zM817.94 897.21 a5.65 5.65 0 1 0 11.3 0 a5.65 5.65 0 1 0 -11.3 0z" fill="#00944d" fill-rule="nonzero"></path><path d="M1362.59 333.02L1362.59 337.95L1393.7 337.95L1393.7 333.02zM1384.96 335.49 a8.74 8.74 0 1 0 17.48 0 a8.74 8.74 0 1 0 -17.48 0zM1356.36 369.26L1354.47 373.81L1375.27 382.43L1377.16 377.87zM1367.47 380.15 a8.74 8.74 0 1 0 17.48 0 a8.74 8.74 0 1 0 -17.48 0zM1336.74 400.35L1333.25 403.84L1352.51 423.09L1356 419.61zM1345.51 421.35 a8.74 8.74 0 1 0 17.48 0 a8.74 8.74 0 1 0 -17.48 0zM1306.72 421.57L1302.16 423.46L1311.34 445.62L1315.9 443.74zM1304.88 444.68 a8.74 8.74 0 1 0 17.48 0 a8.74 8.74 0 1 0 -17.48 0zM1270.85 429.69L1265.92 429.69L1265.92 468.95L1270.85 468.95zM1259.65 468.95 a8.74 8.74 0 1 0 17.48 0 a8.74 8.74 0 1 0 -17.48 0zM1234.62 423.46L1230.06 421.57L1216.74 453.73L1221.3 455.62zM1210.28 454.68 a8.74 8.74 0 1 0 17.48 0 a8.74 8.74 0 1 0 -17.48 0zM1203.52 403.84L1200.03 400.35L1175.42 424.97L1178.91 428.45zM1168.42 426.71 a8.74 8.74 0 1 0 17.48 0 a8.74 8.74 0 1 0 -17.48 0zM1182.3 373.81L1180.41 369.26L1160.96 377.32L1162.85 381.87zM1153.16 379.59 a8.74 8.74 0 1 0 17.48 0 a8.74 8.74 0 1 0 -17.48 0zM1174.19 337.95L1174.19 333.02L1151.33 333.02L1151.33 337.95zM1142.59 335.49 a8.74 8.74 0 1 0 17.48 0 a8.74 8.74 0 1 0 -17.48 0zM1180.41 301.72L1182.3 297.16L1165.97 290.39L1164.08 294.95zM1156.28 292.67 a8.74 8.74 0 1 0 17.48 0 a8.74 8.74 0 1 0 -17.48 0zM1200.03 270.62L1203.52 267.13L1172.27 235.88L1168.78 239.37zM1161.78 237.62 a8.74 8.74 0 1 0 17.48 0 a8.74 8.74 0 1 0 -17.48 0zM1230.06 249.4L1234.62 247.51L1223.44 220.54L1218.89 222.42zM1212.42 221.48 a8.74 8.74 0 1 0 17.48 0 a8.74 8.74 0 1 0 -17.48 0zM1265.92 241.29L1270.85 241.29L1270.85 222.6L1265.92 222.6zM1259.65 222.6 a8.74 8.74 0 1 0 17.48 0 a8.74 8.74 0 1 0 -17.48 0zM1302.16 247.51L1306.72 249.4L1318.06 222.01L1313.5 220.12zM1307.04 221.06 a8.74 8.74 0 1 0 17.48 0 a8.74 8.74 0 1 0 -17.48 0zM1333.25 267.13L1336.74 270.62L1357.46 249.9L1353.97 246.41zM1346.98 248.16 a8.74 8.74 0 1 0 17.48 0 a8.74 8.74 0 1 0 -17.48 0zM1354.47 297.16L1356.36 301.72L1384.3 290.14L1382.41 285.59zM1374.62 287.86 a8.74 8.74 0 1 0 17.48 0 a8.74 8.74 0 1 0 -17.48 0zM1174.16 335.49 a94.23 94.23 0 1 0 188.46 0 a94.23 94.23 0 1 0 -188.46 0z" fill="rgba(0, 185, 96, 1)"></path><path d="M1174.19 332.92 A93.23263999999999 93.23263999999999 0 0 1 1317.54 255.09M1317.54 255.09 A188.46527999999998 188.46527999999998 0 0 0 1174.19 332.92" fill="#00944d" fill-rule="nonzero"></path><path d="M1198.53 277.6 a13.19 13.19 0 1 0 26.38 0 a13.19 13.19 0 1 0 -26.38 0zM1279.23 423.02 a4.71 4.71 0 1 0 9.42 0 a4.71 4.71 0 1 0 -9.42 0zM1234.38 391.89 a18.85 18.85 0 1 0 37.7 0 a18.85 18.85 0 1 0 -37.7 0zM1293.87 294.67 a18.85 18.85 0 1 0 37.7 0 a18.85 18.85 0 1 0 -37.7 0zM1214.19 318.93 a11.31 11.31 0 1 0 22.62 0 a11.31 11.31 0 1 0 -22.62 0zM1253.28 305.58 a3.77 3.77 0 1 0 7.54 0 a3.77 3.77 0 1 0 -7.54 0zM1294.33 378.68 a18.85 18.85 0 1 0 37.7 0 a18.85 18.85 0 1 0 -37.7 0zM1249.26 247.89 a4.71 4.71 0 1 0 9.42 0 a4.71 4.71 0 1 0 -9.42 0zM1253.14 276.42 a4.71 4.71 0 1 0 9.42 0 a4.71 4.71 0 1 0 -9.42 0zM1175.66 322.11 a5.65 5.65 0 1 0 11.3 0 a5.65 5.65 0 1 0 -11.3 0z" fill="#00944d" fill-rule="nonzero"></path><path d="M825.12 208.19L825.12 213.13L853.45 213.13L853.45 208.19zM844.71 210.66 a8.74 8.74 0 1 0 17.48 0 a8.74 8.74 0 1 0 -17.48 0zM818.89 244.43L817 248.99L833.86 255.97L835.75 251.41zM826.07 253.69 a8.74 8.74 0 1 0 17.48 0 a8.74 8.74 0 1 0 -17.48 0zM799.27 275.53L795.78 279.01L825.25 308.48L828.73 304.99zM818.25 306.74 a8.74 8.74 0 1 0 17.48 0 a8.74 8.74 0 1 0 -17.48 0zM769.24 296.75L764.69 298.63L775.61 325.01L780.17 323.12zM769.15 324.07 a8.74 8.74 0 1 0 17.48 0 a8.74 8.74 0 1 0 -17.48 0zM733.38 304.86L728.45 304.86L728.45 330.39L733.38 330.39zM722.18 330.39 a8.74 8.74 0 1 0 17.48 0 a8.74 8.74 0 1 0 -17.48 0zM697.15 298.63L692.59 296.75L685.09 314.85L689.64 316.74zM678.63 315.8 a8.74 8.74 0 1 0 17.48 0 a8.74 8.74 0 1 0 -17.48 0zM666.05 279.01L662.56 275.53L641.74 296.34L645.23 299.83zM634.75 298.09 a8.74 8.74 0 1 0 17.48 0 a8.74 8.74 0 1 0 -17.48 0zM644.83 248.99L642.94 244.43L607.25 259.21L609.14 263.77zM599.46 261.49 a8.74 8.74 0 1 0 17.48 0 a8.74 8.74 0 1 0 -17.48 0zM636.72 213.13L636.72 208.19L617.48 208.19L617.48 213.13zM608.74 210.66 a8.74 8.74 0 1 0 17.48 0 a8.74 8.74 0 1 0 -17.48 0zM642.94 176.89L644.83 172.33L618.94 161.61L617.05 166.17zM609.26 163.89 a8.74 8.74 0 1 0 17.48 0 a8.74 8.74 0 1 0 -17.48 0zM662.56 145.8L666.05 142.31L636.32 112.57L632.83 116.06zM625.83 114.32 a8.74 8.74 0 1 0 17.48 0 a8.74 8.74 0 1 0 -17.48 0zM692.59 124.57L697.15 122.69L682.76 87.96L678.2 89.85zM671.74 88.9 a8.74 8.74 0 1 0 17.48 0 a8.74 8.74 0 1 0 -17.48 0zM728.45 116.46L733.38 116.46L733.38 77.16L728.45 77.16zM722.18 77.16 a8.74 8.74 0 1 0 17.48 0 a8.74 8.74 0 1 0 -17.48 0zM764.69 122.69L769.24 124.57L778.14 103.09L773.59 101.2zM767.13 102.14 a8.74 8.74 0 1 0 17.48 0 a8.74 8.74 0 1 0 -17.48 0zM795.78 142.31L799.27 145.8L810.82 134.25L807.33 130.76zM800.33 132.5 a8.74 8.74 0 1 0 17.48 0 a8.74 8.74 0 1 0 -17.48 0zM817 172.33L818.89 176.89L832.78 171.14L830.89 166.58zM823.09 168.86 a8.74 8.74 0 1 0 17.48 0 a8.74 8.74 0 1 0 -17.48 0zM636.69 210.66 a94.23 94.23 0 1 0 188.46 0 a94.23 94.23 0 1 0 -188.46 0z" fill="rgba(0, 185, 96, 1)"></path><path d="M688.81 294.96 A93.23263999999999 93.23263999999999 0 0 1 678.8 132.15M678.8 132.15 A188.46527999999998 188.46527999999998 0 0 0 688.81 294.96" fill="#00944d" fill-rule="nonzero"></path><path d="M685.19 235.68 a18.85 18.85 0 1 0 37.7 0 a18.85 18.85 0 1 0 -37.7 0zM735.58 259.48 a7.54 7.54 0 1 0 15.08 0 a7.54 7.54 0 1 0 -15.08 0zM664.08 188.31 a15.08 15.08 0 1 0 30.16 0 a15.08 15.08 0 1 0 -30.16 0zM678.29 274.81 a5.65 5.65 0 1 0 11.3 0 a5.65 5.65 0 1 0 -11.3 0zM749.07 139.85 a15.08 15.08 0 1 0 30.16 0 a15.08 15.08 0 1 0 -30.16 0zM655.12 230.84 a5.65 5.65 0 1 0 11.3 0 a5.65 5.65 0 1 0 -11.3 0zM708.62 169.53 a5.65 5.65 0 1 0 11.3 0 a5.65 5.65 0 1 0 -11.3 0zM767 210.43 a18.85 18.85 0 1 0 37.7 0 a18.85 18.85 0 1 0 -37.7 0zM797.95 168.91 a7.54 7.54 0 1 0 15.08 0 a7.54 7.54 0 1 0 -15.08 0zM680.99 141.23 a11.31 11.31 0 1 0 22.62 0 a11.31 11.31 0 1 0 -22.62 0z" fill="#00944d" fill-rule="nonzero"></path><path d="M1843.81 613.28L1843.81 616.98L1872.19 616.98L1872.19 613.28zM1865.64 615.13 a6.55 6.55 0 1 0 13.1 0 a6.55 6.55 0 1 0 -13.1 0zM1839.14 640.46L1837.72 643.88L1863.22 654.44L1864.64 651.02zM1857.38 652.73 a6.55 6.55 0 1 0 13.1 0 a6.55 6.55 0 1 0 -13.1 0zM1824.42 663.78L1821.81 666.4L1837.73 682.32L1840.35 679.71zM1832.49 681.02 a6.55 6.55 0 1 0 13.1 0 a6.55 6.55 0 1 0 -13.1 0zM1801.9 679.7L1798.49 681.11L1802 689.6L1805.42 688.19zM1797.16 688.9 a6.55 6.55 0 1 0 13.1 0 a6.55 6.55 0 1 0 -13.1 0zM1775.01 685.78L1771.31 685.78L1771.31 720.57L1775.01 720.57zM1766.61 720.57 a6.55 6.55 0 1 0 13.1 0 a6.55 6.55 0 1 0 -13.1 0zM1747.83 681.11L1744.41 679.7L1739.2 692.27L1742.62 693.69zM1734.36 692.98 a6.55 6.55 0 1 0 13.1 0 a6.55 6.55 0 1 0 -13.1 0zM1724.51 666.4L1721.89 663.78L1703 682.68L1705.62 685.29zM1697.76 683.98 a6.55 6.55 0 1 0 13.1 0 a6.55 6.55 0 1 0 -13.1 0zM1708.59 643.88L1707.18 640.46L1679.89 651.77L1681.3 655.18zM1674.04 653.47 a6.55 6.55 0 1 0 13.1 0 a6.55 6.55 0 1 0 -13.1 0zM1702.51 616.98L1702.51 613.28L1686.08 613.28L1686.08 616.98zM1679.53 615.13 a6.55 6.55 0 1 0 13.1 0 a6.55 6.55 0 1 0 -13.1 0zM1707.18 589.81L1708.59 586.39L1680.05 574.56L1678.63 577.98zM1672.79 576.27 a6.55 6.55 0 1 0 13.1 0 a6.55 6.55 0 1 0 -13.1 0zM1721.89 566.48L1724.51 563.87L1706.07 545.43L1703.46 548.05zM1698.22 546.74 a6.55 6.55 0 1 0 13.1 0 a6.55 6.55 0 1 0 -13.1 0zM1744.41 550.57L1747.83 549.15L1739.52 529.1L1736.1 530.51zM1731.26 529.8 a6.55 6.55 0 1 0 13.1 0 a6.55 6.55 0 1 0 -13.1 0zM1771.31 544.48L1775.01 544.48L1775.01 534.51L1771.31 534.51zM1766.61 534.51 a6.55 6.55 0 1 0 13.1 0 a6.55 6.55 0 1 0 -13.1 0zM1798.49 549.15L1801.9 550.57L1810.71 529.3L1807.3 527.89zM1802.45 528.59 a6.55 6.55 0 1 0 13.1 0 a6.55 6.55 0 1 0 -13.1 0zM1821.81 563.87L1824.42 566.48L1836.63 554.28L1834.01 551.66zM1828.77 552.97 a6.55 6.55 0 1 0 13.1 0 a6.55 6.55 0 1 0 -13.1 0zM1837.72 586.39L1839.14 589.81L1869.45 577.25L1868.04 573.83zM1862.19 575.54 a6.55 6.55 0 1 0 13.1 0 a6.55 6.55 0 1 0 -13.1 0zM1702.49 615.13 a70.67 70.67 0 1 0 141.34 0 a70.67 70.67 0 1 0 -141.34 0z" fill="rgba(0, 185, 96, 1)"></path><path d="M1838.17 642.85 A69.67448 69.67448 0 0 1 1716.74 657.7M1716.74 657.7 A141.34896 141.34896 0 0 0 1838.17 642.85" fill="#00944d" fill-rule="nonzero"></path><path d="M1711.06 587.13 a14.13 14.13 0 1 0 28.26 0 a14.13 14.13 0 1 0 -28.26 0zM1748.83 568.13 a9.19 9.19 0 1 0 18.38 0 a9.19 9.19 0 1 0 -18.38 0zM1783.99 617.31 a14.13 14.13 0 1 0 28.26 0 a14.13 14.13 0 1 0 -28.26 0zM1805.17 652.39 a10.6 10.6 0 1 0 21.2 0 a10.6 10.6 0 1 0 -21.2 0zM1836.32 621.98 a3.53 3.53 0 1 0 7.06 0 a3.53 3.53 0 1 0 -7.06 0zM1802.66 561.21 a5.65 5.65 0 1 0 11.3 0 a5.65 5.65 0 1 0 -11.3 0zM1718.8 654.45 a14.13 14.13 0 1 0 28.26 0 a14.13 14.13 0 1 0 -28.26 0zM1769.51 677.85 a7.77 7.77 0 1 0 15.54 0 a7.77 7.77 0 1 0 -15.54 0zM1760.69 646.39 a5.65 5.65 0 1 0 11.3 0 a5.65 5.65 0 1 0 -11.3 0zM1781.58 571.88 a4.24 4.24 0 1 0 8.48 0 a4.24 4.24 0 1 0 -8.48 0z" fill="#00944d" fill-rule="nonzero"></path><path d="M1694.56 917.65L1694.56 921.96L1714.61 921.96L1714.61 917.65zM1706.97 919.8 a7.64 7.64 0 1 0 15.28 0 a7.64 7.64 0 1 0 -15.28 0zM1689.11 949.35L1687.46 953.34L1721.18 967.31L1722.84 963.32zM1714.37 965.32 a7.64 7.64 0 1 0 15.28 0 a7.64 7.64 0 1 0 -15.28 0zM1671.95 976.56L1668.9 979.61L1683.36 994.07L1686.41 991.02zM1677.24 992.55 a7.64 7.64 0 1 0 15.28 0 a7.64 7.64 0 1 0 -15.28 0zM1645.67 995.13L1641.69 996.78L1653.39 1025.04L1657.38 1023.39zM1647.75 1024.22 a7.64 7.64 0 1 0 15.28 0 a7.64 7.64 0 1 0 -15.28 0zM1614.3 1002.23L1609.98 1002.23L1609.98 1020.83L1614.3 1020.83zM1604.5 1020.83 a7.64 7.64 0 1 0 15.28 0 a7.64 7.64 0 1 0 -15.28 0zM1582.59 996.78L1578.6 995.13L1573.11 1008.38L1577.1 1010.03zM1567.47 1009.2 a7.64 7.64 0 1 0 15.28 0 a7.64 7.64 0 1 0 -15.28 0zM1555.38 979.61L1552.33 976.56L1539.06 989.83L1542.12 992.88zM1532.95 991.35 a7.64 7.64 0 1 0 15.28 0 a7.64 7.64 0 1 0 -15.28 0zM1536.81 953.34L1535.16 949.35L1524.84 953.63L1526.49 957.62zM1518.03 955.62 a7.64 7.64 0 1 0 15.28 0 a7.64 7.64 0 1 0 -15.28 0zM1529.71 921.96L1529.71 917.65L1499.55 917.65L1499.55 921.96zM1491.91 919.8 a7.64 7.64 0 1 0 15.28 0 a7.64 7.64 0 1 0 -15.28 0zM1535.16 890.26L1536.81 886.27L1503.14 872.32L1501.49 876.31zM1494.67 874.31 a7.64 7.64 0 1 0 15.28 0 a7.64 7.64 0 1 0 -15.28 0zM1552.33 863.05L1555.38 859.99L1530.53 835.14L1527.47 838.19zM1521.36 836.67 a7.64 7.64 0 1 0 15.28 0 a7.64 7.64 0 1 0 -15.28 0zM1578.6 844.48L1582.59 842.83L1569.34 810.85L1565.36 812.5zM1559.71 811.68 a7.64 7.64 0 1 0 15.28 0 a7.64 7.64 0 1 0 -15.28 0zM1609.98 837.38L1614.3 837.38L1614.3 798.91L1609.98 798.91zM1604.5 798.91 a7.64 7.64 0 1 0 15.28 0 a7.64 7.64 0 1 0 -15.28 0zM1641.69 842.83L1645.67 844.48L1651.95 829.34L1647.96 827.68zM1642.31 828.51 a7.64 7.64 0 1 0 15.28 0 a7.64 7.64 0 1 0 -15.28 0zM1668.9 859.99L1671.95 863.05L1684.14 850.86L1681.09 847.8zM1674.97 849.33 a7.64 7.64 0 1 0 15.28 0 a7.64 7.64 0 1 0 -15.28 0zM1687.46 886.27L1689.11 890.26L1709.72 881.72L1708.07 877.73zM1701.25 879.73 a7.64 7.64 0 1 0 15.28 0 a7.64 7.64 0 1 0 -15.28 0zM1529.69 919.8 a82.45 82.45 0 1 0 164.9 0 a82.45 82.45 0 1 0 -164.9 0z" fill="rgba(0, 185, 96, 1)"></path><path d="M1640.73 842.47 A81.45356 81.45356 0 0 1 1664.95 983.12M1664.95 983.12 A164.90712 164.90712 0 0 0 1640.73 842.47" fill="#00944d" fill-rule="nonzero"></path><path d="M1614.51 855.12 a14.84 14.84 0 1 0 29.68 0 a14.84 14.84 0 1 0 -29.68 0zM1583.48 846.84 a4.95 4.95 0 1 0 9.9 0 a4.95 4.95 0 1 0 -9.9 0zM1574.41 958.02 a16.49 16.49 0 1 0 32.98 0 a16.49 16.49 0 1 0 -32.98 0zM1605.87 994.53 a7.42 7.42 0 1 0 14.84 0 a7.42 7.42 0 1 0 -14.84 0zM1628.86 940.34 a16.49 16.49 0 1 0 32.98 0 a16.49 16.49 0 1 0 -32.98 0zM1583.9 874.65 a5.77 5.77 0 1 0 11.54 0 a5.77 5.77 0 1 0 -11.54 0zM1558.3 912.3 a15.67 15.67 0 1 0 31.34 0 a15.67 15.67 0 1 0 -31.34 0zM1667.62 874.96 a5.77 5.77 0 1 0 11.54 0 a5.77 5.77 0 1 0 -11.54 0zM1638.88 903.5 a3.3 3.3 0 1 0 6.6 0 a3.3 3.3 0 1 0 -6.6 0zM1639.06 978.7 a4.95 4.95 0 1 0 9.9 0 a4.95 4.95 0 1 0 -9.9 0z" fill="#00944d" fill-rule="nonzero"></path><path d="M141.85 157.7L141.85 160.17L159.88 160.17L159.88 157.7zM155.51 158.93 a4.37 4.37 0 1 0 8.74 0 a4.37 4.37 0 1 0 -8.74 0zM138.74 175.82L137.8 178.1L145.45 181.27L146.39 178.99zM141.55 180.13 a4.37 4.37 0 1 0 8.74 0 a4.37 4.37 0 1 0 -8.74 0zM128.93 191.37L127.19 193.11L135.38 201.31L137.12 199.56zM131.88 200.44 a4.37 4.37 0 1 0 8.74 0 a4.37 4.37 0 1 0 -8.74 0zM113.92 201.98L111.64 202.92L118.95 220.58L121.23 219.63zM115.72 220.11 a4.37 4.37 0 1 0 8.74 0 a4.37 4.37 0 1 0 -8.74 0zM95.99 206.04L93.52 206.04L93.52 221.82L95.99 221.82zM90.38 221.82 a4.37 4.37 0 1 0 8.74 0 a4.37 4.37 0 1 0 -8.74 0zM77.87 202.92L75.59 201.98L70.25 214.88L72.53 215.82zM67.02 215.35 a4.37 4.37 0 1 0 8.74 0 a4.37 4.37 0 1 0 -8.74 0zM62.32 193.11L60.58 191.37L45.23 206.71L46.98 208.46zM41.73 207.58 a4.37 4.37 0 1 0 8.74 0 a4.37 4.37 0 1 0 -8.74 0zM51.71 178.1L50.77 175.82L33.53 182.96L34.47 185.24zM29.63 184.1 a4.37 4.37 0 1 0 8.74 0 a4.37 4.37 0 1 0 -8.74 0zM47.65 160.17L47.65 157.7L25.08 157.7L25.08 160.17zM20.71 158.93 a4.37 4.37 0 1 0 8.74 0 a4.37 4.37 0 1 0 -8.74 0zM50.77 142.05L51.71 139.77L39.51 134.72L38.56 136.99zM34.66 135.86 a4.37 4.37 0 1 0 8.74 0 a4.37 4.37 0 1 0 -8.74 0zM60.58 126.5L62.32 124.76L48.81 111.25L47.07 113zM43.57 112.12 a4.37 4.37 0 1 0 8.74 0 a4.37 4.37 0 1 0 -8.74 0zM75.59 115.89L77.87 114.95L71.61 99.83L69.33 100.78zM66.1 100.31 a4.37 4.37 0 1 0 8.74 0 a4.37 4.37 0 1 0 -8.74 0zM93.52 111.83L95.99 111.83L95.99 89.68L93.52 89.68zM90.38 89.68 a4.37 4.37 0 1 0 8.74 0 a4.37 4.37 0 1 0 -8.74 0zM111.64 114.95L113.92 115.89L121.83 96.78L119.56 95.83zM116.32 96.3 a4.37 4.37 0 1 0 8.74 0 a4.37 4.37 0 1 0 -8.74 0zM127.19 124.76L128.93 126.5L141.1 114.33L139.35 112.59zM135.86 113.46 a4.37 4.37 0 1 0 8.74 0 a4.37 4.37 0 1 0 -8.74 0zM137.8 139.77L138.74 142.05L148.64 137.95L147.7 135.67zM143.8 136.81 a4.37 4.37 0 1 0 8.74 0 a4.37 4.37 0 1 0 -8.74 0zM47.63 158.93 a47.12 47.12 0 1 0 94.24 0 a47.12 47.12 0 1 0 -94.24 0z" fill="rgba(0, 185, 96, 1)"></path><path d="M141.5 153.06 A46.116319999999995 46.116319999999995 0 0 1 76.55 202.4M76.55 202.4 A94.23263999999999 94.23263999999999 0 0 0 141.5 153.06" fill="#00944d" fill-rule="nonzero"></path><path d="M116.43 127.1 a5.18 5.18 0 1 0 10.36 0 a5.18 5.18 0 1 0 -10.36 0zM114.46 178.59 a9.42 9.42 0 1 0 18.84 0 a9.42 9.42 0 1 0 -18.84 0zM81.06 185.1 a9.42 9.42 0 1 0 18.84 0 a9.42 9.42 0 1 0 -18.84 0zM116.12 152.25 a7.07 7.07 0 1 0 14.14 0 a7.07 7.07 0 1 0 -14.14 0zM72.43 123.62 a8.95 8.95 0 1 0 17.9 0 a8.95 8.95 0 1 0 -17.9 0zM60.38 156.81 a9.42 9.42 0 1 0 18.84 0 a9.42 9.42 0 1 0 -18.84 0zM54.95 182.34 a3.77 3.77 0 1 0 7.54 0 a3.77 3.77 0 1 0 -7.54 0zM90.22 143.79 a6.6 6.6 0 1 0 13.2 0 a6.6 6.6 0 1 0 -13.2 0zM100.97 167.51 a3.3 3.3 0 1 0 6.6 0 a3.3 3.3 0 1 0 -6.6 0zM55.35 135.61 a4.24 4.24 0 1 0 8.48 0 a4.24 4.24 0 1 0 -8.48 0z" fill="#00944d" fill-rule="nonzero"></path><path d="M373.28 250.63L373.28 253.1L382.13 253.1L382.13 250.63zM377.76 251.86 a4.37 4.37 0 1 0 8.74 0 a4.37 4.37 0 1 0 -8.74 0zM370.17 268.75L369.22 271.03L384.17 277.22L385.11 274.94zM380.27 276.08 a4.37 4.37 0 1 0 8.74 0 a4.37 4.37 0 1 0 -8.74 0zM360.36 284.3L358.61 286.04L367.67 295.1L369.41 293.35zM364.17 294.23 a4.37 4.37 0 1 0 8.74 0 a4.37 4.37 0 1 0 -8.74 0zM345.34 294.91L343.06 295.85L351.23 315.56L353.51 314.61zM348 315.09 a4.37 4.37 0 1 0 8.74 0 a4.37 4.37 0 1 0 -8.74 0zM327.41 298.96L324.95 298.96L324.95 307.76L327.41 307.76zM321.81 307.76 a4.37 4.37 0 1 0 8.74 0 a4.37 4.37 0 1 0 -8.74 0zM309.29 295.85L307.01 294.91L302.01 306.98L304.29 307.93zM298.78 307.45 a4.37 4.37 0 1 0 8.74 0 a4.37 4.37 0 1 0 -8.74 0zM293.75 286.04L292 284.3L279.63 296.67L281.37 298.42zM276.13 297.54 a4.37 4.37 0 1 0 8.74 0 a4.37 4.37 0 1 0 -8.74 0zM283.14 271.03L282.19 268.75L271.02 273.38L271.97 275.65zM267.12 274.51 a4.37 4.37 0 1 0 8.74 0 a4.37 4.37 0 1 0 -8.74 0zM279.08 253.1L279.08 250.63L264.92 250.63L264.92 253.1zM260.55 251.86 a4.37 4.37 0 1 0 8.74 0 a4.37 4.37 0 1 0 -8.74 0zM282.19 234.98L283.14 232.7L267.85 226.37L266.9 228.65zM263 227.51 a4.37 4.37 0 1 0 8.74 0 a4.37 4.37 0 1 0 -8.74 0zM292 219.43L293.75 217.69L277.65 201.59L275.91 203.34zM272.41 202.47 a4.37 4.37 0 1 0 8.74 0 a4.37 4.37 0 1 0 -8.74 0zM307.01 208.82L309.29 207.88L304.71 196.81L302.43 197.75zM299.2 197.28 a4.37 4.37 0 1 0 8.74 0 a4.37 4.37 0 1 0 -8.74 0zM324.95 204.76L327.41 204.76L327.41 194.44L324.95 194.44zM321.81 194.44 a4.37 4.37 0 1 0 8.74 0 a4.37 4.37 0 1 0 -8.74 0zM343.06 207.88L345.34 208.82L351.75 193.36L349.47 192.41zM346.24 192.88 a4.37 4.37 0 1 0 8.74 0 a4.37 4.37 0 1 0 -8.74 0zM358.61 217.69L360.36 219.43L374.77 205.02L373.02 203.28zM369.52 204.15 a4.37 4.37 0 1 0 8.74 0 a4.37 4.37 0 1 0 -8.74 0zM369.22 232.7L370.17 234.98L376.91 232.19L375.97 229.91zM372.07 231.05 a4.37 4.37 0 1 0 8.74 0 a4.37 4.37 0 1 0 -8.74 0zM279.06 251.86 a47.12 47.12 0 1 0 94.24 0 a47.12 47.12 0 1 0 -94.24 0z" fill="rgba(0, 185, 96, 1)"></path><path d="M364.87 278.75 A46.116319999999995 46.116319999999995 0 0 1 283.59 272.02M283.59 272.02 A94.23263999999999 94.23263999999999 0 0 0 364.87 278.75" fill="#00944d" fill-rule="nonzero"></path><path d="M288.82 228.65 a9.42 9.42 0 1 0 18.84 0 a9.42 9.42 0 1 0 -18.84 0zM323.24 283.82 a9.42 9.42 0 1 0 18.84 0 a9.42 9.42 0 1 0 -18.84 0zM302.01 255.36 a9.42 9.42 0 1 0 18.84 0 a9.42 9.42 0 1 0 -18.84 0zM279.79 258.01 a5.18 5.18 0 1 0 10.36 0 a5.18 5.18 0 1 0 -10.36 0zM354.1 229.78 a6.13 6.13 0 1 0 12.26 0 a6.13 6.13 0 1 0 -12.26 0zM355.12 260.54 a8.48 8.48 0 1 0 16.96 0 a8.48 8.48 0 1 0 -16.96 0zM332.74 252.72 a7.07 7.07 0 1 0 14.14 0 a7.07 7.07 0 1 0 -14.14 0zM334.82 230.53 a4.71 4.71 0 1 0 9.42 0 a4.71 4.71 0 1 0 -9.42 0zM324.57 212.72 a5.65 5.65 0 1 0 11.3 0 a5.65 5.65 0 1 0 -11.3 0zM354.47 281.93 a3.3 3.3 0 1 0 6.6 0 a3.3 3.3 0 1 0 -6.6 0z" fill="#00944d" fill-rule="nonzero"></path><path d="M317.55 796.19L317.55 801.12L337.33 801.12L337.33 796.19zM328.59 798.66 a8.74 8.74 0 1 0 17.48 0 a8.74 8.74 0 1 0 -17.48 0zM311.32 832.43L309.44 836.99L345.33 851.85L347.22 847.29zM337.53 849.57 a8.74 8.74 0 1 0 17.48 0 a8.74 8.74 0 1 0 -17.48 0zM291.7 863.52L288.21 867.01L298.24 877.04L301.73 873.55zM291.25 875.29 a8.74 8.74 0 1 0 17.48 0 a8.74 8.74 0 1 0 -17.48 0zM261.68 884.74L257.12 886.63L268.55 914.22L273.1 912.33zM262.09 913.27 a8.74 8.74 0 1 0 17.48 0 a8.74 8.74 0 1 0 -17.48 0zM225.82 892.86L220.88 892.86L220.88 933.28L225.82 933.28zM214.61 933.28 a8.74 8.74 0 1 0 17.48 0 a8.74 8.74 0 1 0 -17.48 0zM189.58 886.63L185.02 884.74L178.12 901.41L182.68 903.3zM171.66 902.35 a8.74 8.74 0 1 0 17.48 0 a8.74 8.74 0 1 0 -17.48 0zM158.48 867.01L155 863.52L129.58 888.94L133.07 892.42zM122.59 890.68 a8.74 8.74 0 1 0 17.48 0 a8.74 8.74 0 1 0 -17.48 0zM137.26 836.99L135.38 832.43L106.8 844.26L108.69 848.82zM99 846.54 a8.74 8.74 0 1 0 17.48 0 a8.74 8.74 0 1 0 -17.48 0zM129.15 801.12L129.15 796.19L107 796.19L107 801.12zM98.26 798.66 a8.74 8.74 0 1 0 17.48 0 a8.74 8.74 0 1 0 -17.48 0zM135.38 764.89L137.26 760.33L110.62 749.29L108.73 753.85zM100.93 751.57 a8.74 8.74 0 1 0 17.48 0 a8.74 8.74 0 1 0 -17.48 0zM155 733.79L158.48 730.3L133.92 705.74L130.43 709.23zM123.43 707.48 a8.74 8.74 0 1 0 17.48 0 a8.74 8.74 0 1 0 -17.48 0zM185.02 712.57L189.58 710.68L182.88 694.52L178.32 696.4zM171.86 695.46 a8.74 8.74 0 1 0 17.48 0 a8.74 8.74 0 1 0 -17.48 0zM220.88 704.46L225.82 704.46L225.82 681.49L220.88 681.49zM214.61 681.49 a8.74 8.74 0 1 0 17.48 0 a8.74 8.74 0 1 0 -17.48 0zM257.12 710.68L261.68 712.57L274.8 680.89L270.24 679zM263.78 679.95 a8.74 8.74 0 1 0 17.48 0 a8.74 8.74 0 1 0 -17.48 0zM288.21 730.3L291.7 733.79L301.58 723.91L298.09 720.43zM291.1 722.17 a8.74 8.74 0 1 0 17.48 0 a8.74 8.74 0 1 0 -17.48 0zM309.44 760.33L311.32 764.89L333.36 755.76L331.47 751.2zM323.67 753.48 a8.74 8.74 0 1 0 17.48 0 a8.74 8.74 0 1 0 -17.48 0zM129.12 798.66 a94.23 94.23 0 1 0 188.46 0 a94.23 94.23 0 1 0 -188.46 0z" fill="rgba(0, 185, 96, 1)"></path><path d="M244.5 706.83 A93.23263999999999 93.23263999999999 0 0 1 292.43 862.74M292.43 862.74 A188.46527999999998 188.46527999999998 0 0 0 244.5 706.83" fill="#00944d" fill-rule="nonzero"></path><path d="M236.08 714.67 a7.54 7.54 0 1 0 15.08 0 a7.54 7.54 0 1 0 -15.08 0zM261.22 747.88 a17.9 17.9 0 1 0 35.8 0 a17.9 17.9 0 1 0 -35.8 0zM239.96 824.99 a18.85 18.85 0 1 0 37.7 0 a18.85 18.85 0 1 0 -37.7 0zM173.66 782.39 a18.85 18.85 0 1 0 37.7 0 a18.85 18.85 0 1 0 -37.7 0zM153.58 748.66 a7.54 7.54 0 1 0 15.08 0 a7.54 7.54 0 1 0 -15.08 0zM218.91 849.19 a4.71 4.71 0 1 0 9.42 0 a4.71 4.71 0 1 0 -9.42 0zM177.18 831.35 a11.31 11.31 0 1 0 22.62 0 a11.31 11.31 0 1 0 -22.62 0zM215.56 877.64 a4.71 4.71 0 1 0 9.42 0 a4.71 4.71 0 1 0 -9.42 0zM301.23 833.07 a4.71 4.71 0 1 0 9.42 0 a4.71 4.71 0 1 0 -9.42 0zM130.95 783.49 a9.42 9.42 0 1 0 18.84 0 a9.42 9.42 0 1 0 -18.84 0z" fill="#00944d" fill-rule="nonzero"></path><path d="M693.29 1292.68L693.29 1295.15L702.83 1295.15L702.83 1292.68zM698.46 1293.91 a4.37 4.37 0 1 0 8.74 0 a4.37 4.37 0 1 0 -8.74 0zM690.18 1310.8L689.23 1313.08L696.46 1316.07L697.4 1313.79zM692.56 1314.93 a4.37 4.37 0 1 0 8.74 0 a4.37 4.37 0 1 0 -8.74 0zM680.37 1326.35L678.62 1328.09L693.58 1343.05L695.32 1341.3zM690.08 1342.17 a4.37 4.37 0 1 0 8.74 0 a4.37 4.37 0 1 0 -8.74 0zM665.35 1336.96L663.08 1337.9L671.53 1358.3L673.8 1357.36zM668.29 1357.83 a4.37 4.37 0 1 0 8.74 0 a4.37 4.37 0 1 0 -8.74 0zM647.42 1341.01L644.96 1341.01L644.96 1349.42L647.42 1349.42zM641.82 1349.42 a4.37 4.37 0 1 0 8.74 0 a4.37 4.37 0 1 0 -8.74 0zM629.31 1337.9L627.03 1336.96L618.36 1357.88L620.64 1358.83zM615.13 1358.35 a4.37 4.37 0 1 0 8.74 0 a4.37 4.37 0 1 0 -8.74 0zM613.76 1328.09L612.01 1326.35L599.42 1338.94L601.16 1340.68zM595.92 1339.81 a4.37 4.37 0 1 0 8.74 0 a4.37 4.37 0 1 0 -8.74 0zM603.15 1313.08L602.2 1310.8L594.83 1313.85L595.78 1316.13zM590.93 1314.99 a4.37 4.37 0 1 0 8.74 0 a4.37 4.37 0 1 0 -8.74 0zM599.09 1295.15L599.09 1292.68L588.05 1292.68L588.05 1295.15zM583.68 1293.91 a4.37 4.37 0 1 0 8.74 0 a4.37 4.37 0 1 0 -8.74 0zM602.2 1277.03L603.15 1274.75L590.63 1269.56L589.69 1271.84zM585.79 1270.7 a4.37 4.37 0 1 0 8.74 0 a4.37 4.37 0 1 0 -8.74 0zM612.01 1261.48L613.76 1259.74L598.42 1244.4L596.68 1246.14zM593.18 1245.27 a4.37 4.37 0 1 0 8.74 0 a4.37 4.37 0 1 0 -8.74 0zM627.03 1250.87L629.31 1249.93L622.88 1234.41L620.6 1235.36zM617.37 1234.89 a4.37 4.37 0 1 0 8.74 0 a4.37 4.37 0 1 0 -8.74 0zM644.96 1246.81L647.42 1246.81L647.42 1238.99L644.96 1238.99zM641.82 1238.99 a4.37 4.37 0 1 0 8.74 0 a4.37 4.37 0 1 0 -8.74 0zM663.08 1249.93L665.35 1250.87L668.95 1242.19L666.67 1241.24zM663.44 1241.71 a4.37 4.37 0 1 0 8.74 0 a4.37 4.37 0 1 0 -8.74 0zM678.62 1259.74L680.37 1261.48L684.74 1257.11L682.99 1255.37zM679.5 1256.24 a4.37 4.37 0 1 0 8.74 0 a4.37 4.37 0 1 0 -8.74 0zM689.23 1274.75L690.18 1277.03L701.1 1272.51L700.15 1270.23zM696.26 1271.37 a4.37 4.37 0 1 0 8.74 0 a4.37 4.37 0 1 0 -8.74 0zM599.07 1293.91 a47.12 47.12 0 1 0 94.24 0 a47.12 47.12 0 1 0 -94.24 0z" fill="rgba(0, 185, 96, 1)"></path><path d="M649.91 1340.88 A46.116319999999995 46.116319999999995 0 0 1 603.61 1273.74M603.61 1273.74 A94.23263999999999 94.23263999999999 0 0 0 649.91 1340.88" fill="#00944d" fill-rule="nonzero"></path><path d="M628.89 1296.75 a9.42 9.42 0 1 0 18.84 0 a9.42 9.42 0 1 0 -18.84 0zM601.95 1308.35 a4.71 4.71 0 1 0 9.42 0 a4.71 4.71 0 1 0 -9.42 0zM637.81 1266.31 a9.42 9.42 0 1 0 18.84 0 a9.42 9.42 0 1 0 -18.84 0zM602.04 1278.9 a3.3 3.3 0 1 0 6.6 0 a3.3 3.3 0 1 0 -6.6 0zM656.73 1313.03 a9.42 9.42 0 1 0 18.84 0 a9.42 9.42 0 1 0 -18.84 0zM656.22 1289.24 a1.88 1.88 0 1 0 3.76 0 a1.88 1.88 0 1 0 -3.76 0zM666.01 1277.65 a8.48 8.48 0 1 0 16.96 0 a8.48 8.48 0 1 0 -16.96 0zM626.41 1255.7 a2.36 2.36 0 1 0 4.72 0 a2.36 2.36 0 1 0 -4.72 0zM618 1327.43 a7.54 7.54 0 1 0 15.08 0 a7.54 7.54 0 1 0 -15.08 0zM681.99 1301.86 a1.88 1.88 0 1 0 3.76 0 a1.88 1.88 0 1 0 -3.76 0z" fill="#00944d" fill-rule="nonzero"></path><path d="M1423.01 1149.68L1423.01 1153.38L1433.68 1153.38L1433.68 1149.68zM1427.13 1151.53 a6.55 6.55 0 1 0 13.1 0 a6.55 6.55 0 1 0 -13.1 0zM1418.34 1176.86L1416.93 1180.28L1446.32 1192.46L1447.74 1189.04zM1440.48 1190.75 a6.55 6.55 0 1 0 13.1 0 a6.55 6.55 0 1 0 -13.1 0zM1403.63 1200.18L1401.01 1202.8L1416.7 1218.49L1419.32 1215.87zM1411.46 1217.18 a6.55 6.55 0 1 0 13.1 0 a6.55 6.55 0 1 0 -13.1 0zM1381.11 1216.1L1377.69 1217.51L1382 1227.92L1385.42 1226.51zM1377.16 1227.22 a6.55 6.55 0 1 0 13.1 0 a6.55 6.55 0 1 0 -13.1 0zM1354.21 1222.18L1350.51 1222.18L1350.51 1236.53L1354.21 1236.53zM1345.81 1236.53 a6.55 6.55 0 1 0 13.1 0 a6.55 6.55 0 1 0 -13.1 0zM1327.04 1217.51L1323.62 1216.1L1312.91 1241.94L1316.33 1243.35zM1308.07 1242.65 a6.55 6.55 0 1 0 13.1 0 a6.55 6.55 0 1 0 -13.1 0zM1303.71 1202.8L1301.1 1200.18L1279.81 1221.47L1282.42 1224.09zM1274.56 1222.78 a6.55 6.55 0 1 0 13.1 0 a6.55 6.55 0 1 0 -13.1 0zM1287.8 1180.28L1286.38 1176.86L1260.51 1187.57L1261.93 1190.99zM1254.67 1189.28 a6.55 6.55 0 1 0 13.1 0 a6.55 6.55 0 1 0 -13.1 0zM1281.71 1153.38L1281.71 1149.68L1255.54 1149.68L1255.54 1153.38zM1248.99 1151.53 a6.55 6.55 0 1 0 13.1 0 a6.55 6.55 0 1 0 -13.1 0zM1286.38 1126.2L1287.8 1122.79L1262.73 1112.4L1261.32 1115.82zM1255.48 1114.11 a6.55 6.55 0 1 0 13.1 0 a6.55 6.55 0 1 0 -13.1 0zM1301.1 1102.88L1303.71 1100.27L1292.13 1088.68L1289.51 1091.3zM1284.27 1089.99 a6.55 6.55 0 1 0 13.1 0 a6.55 6.55 0 1 0 -13.1 0zM1323.62 1086.97L1327.04 1085.55L1319.48 1067.31L1316.06 1068.73zM1311.22 1068.02 a6.55 6.55 0 1 0 13.1 0 a6.55 6.55 0 1 0 -13.1 0zM1350.51 1080.88L1354.21 1080.88L1354.21 1062.65L1350.51 1062.65zM1345.81 1062.65 a6.55 6.55 0 1 0 13.1 0 a6.55 6.55 0 1 0 -13.1 0zM1377.69 1085.55L1381.11 1086.97L1384.8 1078.06L1381.38 1076.65zM1376.54 1077.35 a6.55 6.55 0 1 0 13.1 0 a6.55 6.55 0 1 0 -13.1 0zM1401.01 1100.27L1403.63 1102.88L1418.75 1087.76L1416.14 1085.14zM1410.9 1086.45 a6.55 6.55 0 1 0 13.1 0 a6.55 6.55 0 1 0 -13.1 0zM1416.93 1122.79L1418.34 1126.2L1432.91 1120.17L1431.5 1116.75zM1425.65 1118.46 a6.55 6.55 0 1 0 13.1 0 a6.55 6.55 0 1 0 -13.1 0zM1281.69 1151.53 a70.67 70.67 0 1 0 141.34 0 a70.67 70.67 0 1 0 -141.34 0z" fill="rgba(0, 185, 96, 1)"></path><path d="M1325.56 1216.93 A69.67448 69.67448 0 0 1 1309.02 1095.71M1309.02 1095.71 A141.34896 141.34896 0 0 0 1325.56 1216.93" fill="#00944d" fill-rule="nonzero"></path><path d="M1405.07 1190.44 a2.83 2.83 0 1 0 5.66 0 a2.83 2.83 0 1 0 -5.66 0zM1320.4 1126.63 a14.13 14.13 0 1 0 28.26 0 a14.13 14.13 0 1 0 -28.26 0zM1288.34 1123.11 a4.95 4.95 0 1 0 9.9 0 a4.95 4.95 0 1 0 -9.9 0zM1380.98 1120.36 a14.13 14.13 0 1 0 28.26 0 a14.13 14.13 0 1 0 -28.26 0zM1330.91 1176.52 a14.13 14.13 0 1 0 28.26 0 a14.13 14.13 0 1 0 -28.26 0zM1373.62 1176.24 a7.07 7.07 0 1 0 14.14 0 a7.07 7.07 0 1 0 -14.14 0zM1412.31 1155.7 a4.95 4.95 0 1 0 9.9 0 a4.95 4.95 0 1 0 -9.9 0zM1363.91 1203.13 a7.07 7.07 0 1 0 14.14 0 a7.07 7.07 0 1 0 -14.14 0zM1346.84 1098.68 a3.53 3.53 0 1 0 7.06 0 a3.53 3.53 0 1 0 -7.06 0zM1329.51 1088.87 a2.83 2.83 0 1 0 5.66 0 a2.83 2.83 0 1 0 -5.66 0z" fill="#00944d" fill-rule="nonzero"></path></g><defs><mask id="SvgjsMask1001"><rect width="1906" height="1377" fill="#ffffff"></rect></mask></defs></svg>